Coordinates
nRows=137
nColumns=2
inDegrees=yes
endheader
time	ankle_angle_r	
2.5625	  9.440520	
2.625	  9.427510	
2.6875	  9.488060	
2.75	  9.533993	
2.8125	  9.552678	
2.875	  9.557270	
2.9375	  9.538069	
3	  9.540480	
3.0625	  9.542568	
3.125	  9.527405	
3.1875	  9.523451	
3.25	  9.517489	
3.3125	  9.541770	
3.375	  9.565231	
3.4375	  9.525202	
3.5	  9.502429	
3.5625	  9.488079	
3.625	  9.425674	
3.6875	  9.405757	
3.75	  9.443114	
3.8125	  9.456499	
3.875	  9.442310	
3.9375	  9.438642	
4	  9.428210	
4.0625	  9.407918	
4.125	  9.446749	
4.1875	  9.509207	
4.25	  9.530442	
4.3125	  9.553123	
4.375	  9.566200	
4.4375	  9.546839	
4.5	  9.527034	
4.5625	  9.518075	
4.625	  9.520883	
4.6875	  9.536544	
4.75	  9.556890	
4.8125	  9.552727	
4.875	  9.532545	
4.9375	  9.522947	
5	  9.486262	
5.0625	  9.434512	
5.125	  9.435740	
5.1875	  9.483226	
5.25	  9.525898	
5.3125	  9.519623	
5.375	  9.474926	
5.4375	  9.454746	
5.5	  9.456762	
5.5625	  9.447424	
5.625	  9.460554	
5.6875	  9.516462	
5.75	  9.549252	
5.8125	  9.541875	
5.875	  9.557129	
5.9375	  9.569554	
6	  9.544143	
6.0625	  9.520148	
6.125	  9.518317	
6.1875	  9.551004	
6.25	  9.584938	
6.3125	  9.577451	
6.375	  9.543301	
6.4375	  9.483717	
6.5	  9.427569	
6.5625	  9.409821	
6.625	  9.418931	
6.6875	  9.448886	
6.75	  9.472306	
6.8125	  9.461101	
6.875	  9.433611	
6.9375	  9.438283	
7	  9.471384	
7.0625	  9.462748	
7.125	  9.426263	
7.1875	  9.429130	
7.25	  9.463736	
7.3125	  9.473062	
7.375	  9.435506	
7.4375	  9.410310	
7.5	  9.414411	
7.5625	  9.413863	
7.625	  9.439516	
7.6875	  9.466854	
7.75	  9.458279	
7.8125	  9.473508	
7.875	  9.493016	
7.9375	  9.480061	
8	  9.471386	
8.0625	  9.461639	
8.125	  9.471503	
8.1875	  9.523255	
8.25	  9.568533	
8.3125	  9.564755	
8.375	  9.523318	
8.4375	  9.520480	
8.5	  9.549287	
8.5625	  9.537934	
8.625	  9.519699	
8.6875	  9.510017	
8.75	  9.489271	
8.8125	  9.463638	
8.875	  9.423026	
8.9375	  9.400028	
9	  9.409142	
9.0625	  9.416658	
9.125	  9.443017	
9.1875	  9.492195	
9.25	  9.494628	
9.3125	  9.448674	
9.375	  9.434852	
9.4375	  9.453564	
9.5	  9.466104	
9.5625	  9.491968	
9.625	  9.529618	
9.6875	  9.546733	
9.75	  9.538249	
9.8125	  9.520528	
9.875	  9.506017	
9.9375	  9.501841	
10	  9.502284	
10.0625	  9.468426	
10.125	  9.410387	
10.1875	  9.389832	
10.25	  9.380985	
10.3125	  9.355094	
10.375	  9.353054	
10.4375	  9.364460	
10.5	  9.381820	
10.5625	  9.417415	
10.625	  9.440604	
10.6875	  9.445860	
10.75	  9.432157	
10.8125	  9.419062	
10.875	  9.442986	
10.9375	  9.453716	
11	  9.437275	
11.0625	  9.453550	
